<svg width="45" height="45" viewBox="0 0 45 45" fill="none" xmlns="http://www.w3.org/2000/svg">
<path d="M22.5 30L21.7929 30.7071L22.5 31.4142L23.2071 30.7071L22.5 30ZM23.5 7.5C23.5 6.94772 23.0523 6.5 22.5 6.5C21.9477 6.5 21.5 6.94772 21.5 7.5L23.5 7.5ZM10.5429 19.4571L21.7929 30.7071L23.2071 29.2929L11.9571 18.0429L10.5429 19.4571ZM23.2071 30.7071L34.4571 19.4571L33.0429 18.0429L21.7929 29.2929L23.2071 30.7071ZM23.5 30L23.5 7.5L21.5 7.5L21.5 30L23.5 30Z" fill="#33363F"/>
<path d="M9.375 39.375L35.625 39.375" stroke="#33363F" stroke-width="2"/>
</svg>
