<svg width="45" height="45" viewBox="0 0 45 45" fill="none" xmlns="http://www.w3.org/2000/svg">
<path d="M19.0196 12.4267C20.4944 8.74981 21.2319 6.91138 22.5 6.91138C23.7681 6.91138 24.5055 8.74981 25.9804 12.4267L26.0491 12.5979C26.8823 14.6752 27.299 15.7138 28.1481 16.3451C28.9971 16.9764 30.1118 17.0762 32.341 17.2758L32.744 17.3119C36.3924 17.6387 38.2166 17.802 38.6069 18.9626C38.9973 20.1232 37.6425 21.3557 34.9331 23.8208L34.0288 24.6435C32.6572 25.8913 31.9714 26.5153 31.6518 27.333C31.5922 27.4855 31.5426 27.6418 31.5034 27.8008C31.2933 28.6533 31.4941 29.5585 31.8958 31.3687L32.0208 31.9322C32.7589 35.2591 33.128 36.9225 32.4836 37.64C32.2428 37.9081 31.9298 38.1011 31.5822 38.196C30.6518 38.4499 29.3309 37.3735 26.6891 35.2209C24.9544 33.8073 24.0871 33.1006 23.0913 32.9416C22.6996 32.879 22.3004 32.879 21.9087 32.9416C20.9129 33.1006 20.0456 33.8073 18.3109 35.2209C15.6691 37.3735 14.3482 38.4499 13.4178 38.196C13.0701 38.1011 12.7572 37.9081 12.5164 37.64C11.872 36.9225 12.2411 35.2591 12.9792 31.9322L13.1042 31.3687C13.5059 29.5584 13.7067 28.6533 13.4966 27.8008C13.4574 27.6418 13.4078 27.4855 13.3482 27.333C13.0286 26.5153 12.3428 25.8913 10.9712 24.6435L10.0669 23.8208C7.35746 21.3557 6.00273 20.1232 6.39307 18.9626C6.7834 17.802 8.6076 17.6387 12.256 17.3119L12.659 17.2758C14.8882 17.0762 16.0028 16.9764 16.8519 16.3451C17.701 15.7138 18.1176 14.6752 18.9509 12.5979L19.0196 12.4267Z" stroke="#33363F" stroke-width="2"/>
</svg>
